{
	"asset":{
		"generator":"Khronos glTF Blender I/O v3.6.27",
		"version":"2.0"
	},
	"extensionsUsed":[
		"KHR_materials_emissive_strength"
	],
	"scene":0,
	"scenes":[
		{
			"name":"Scene",
			"nodes":[
				0,
				1,
				2,
				3,
				4,
				5,
				6,
				7,
				8,
				10,
				11,
				12
			]
		}
	],
	"nodes":[
		{
			"name":"GPencil",
			"rotation":[
				-0.053207043558359146,
				-0.157434344291687,
				-0.47102102637290955,
				0.8663271069526672
			],
			"scale":[
				1,
				1.559999942779541,
				1
			],
			"translation":[
				-0.5812969207763672,
				1.2768926620483398,
				0.19525718688964844
			]
		},
		{
			"mesh":0,
			"name":"Cube.008",
			"rotation":[
				0,
				-0.697081983089447,
				0,
				0.7169914841651917
			],
			"scale":[
				0.048445478081703186,
				0.048445478081703186,
				0.048445478081703186
			],
			"translation":[
				-0.2039722204208374,
				0.8798748850822449,
				-0.03966224193572998
			]
		},
		{
			"mesh":1,
			"name":"Cylinder.016",
			"rotation":[
				-0.2836533784866333,
				-0.2653052806854248,
				-0.64771968126297,
				0.6554487943649292
			],
			"scale":[
				0.12017416208982468,
				0.02092692442238331,
				0.12017415463924408
			],
			"translation":[
				-0.21177279949188232,
				1.6257930994033813,
				-0.5525116920471191
			]
		},
		{
			"mesh":2,
			"name":"Cylinder.003",
			"rotation":[
				0.434841513633728,
				-0.5448266863822937,
				-0.44726112484931946,
				0.5603876113891602
			],
			"scale":[
				-0.07769680768251419,
				-0.07769680768251419,
				-0.07769680768251419
			],
			"translation":[
				-0.43509864807128906,
				1.499189019203186,
				-0.1519741415977478
			]
		},
		{
			"mesh":3,
			"name":"Cube.004",
			"rotation":[
				0.03879759833216667,
				-0.696001410484314,
				-0.03990570455789566,
				0.7158800959587097
			],
			"scale":[
				0.08545970171689987,
				0.04714268073439598,
				0.016831176355481148
			],
			"translation":[
				-0.2058044672012329,
				1.4434161186218262,
				-0.07581675052642822
			]
		},
		{
			"mesh":4,
			"name":"Cube.003",
			"rotation":[
				0,
				-0.697081983089447,
				0,
				0.7169914841651917
			],
			"scale":[
				0.14271563291549683,
				0.14271563291549683,
				0.14271563291549683
			],
			"translation":[
				-0.4072292447090149,
				-0.08669853210449219,
				-0.6401275396347046
			]
		},
		{
			"mesh":5,
			"name":"Cylinder.001",
			"rotation":[
				0.4929113984107971,
				-0.49291136860847473,
				-0.5069895386695862,
				0.5069895386695862
			],
			"scale":[
				0.07278716564178467,
				0.07278716564178467,
				0.07278716564178467
			],
			"translation":[
				-0.3395642638206482,
				1.4681638479232788,
				2.0481367111206055
			]
		},
		{
			"mesh":6,
			"name":"Cylinder",
			"rotation":[
				0.4929113984107971,
				-0.49291136860847473,
				-0.5069895386695862,
				0.5069895386695862
			],
			"scale":[
				0.10786690562963486,
				0.10786690562963486,
				0.10786690562963486
			],
			"translation":[
				-0.3359144330024719,
				1.7174594402313232,
				2.0218710899353027
			]
		},
		{
			"mesh":7,
			"name":"Cube.002",
			"rotation":[
				0,
				-0.697081983089447,
				0,
				0.7169914841651917
			],
			"scale":[
				0.17892390489578247,
				0.17892388999462128,
				0.19099025428295135
			],
			"translation":[
				-0.4134873151779175,
				1.6487946510314941,
				-0.7555370330810547
			]
		},
		{
			"mesh":8,
			"name":"Cylinder.004",
			"rotation":[
				0,
				0,
				-0.7071067094802856,
				0.7071068286895752
			],
			"scale":[
				0.13742078840732574,
				0.0983673557639122,
				0.12873885035514832
			],
			"translation":[
				15.12030029296875,
				1.3790016174316406,
				-0.006513833999633789
			]
		},
		{
			"children":[
				9
			],
			"mesh":9,
			"name":"Cube.001",
			"rotation":[
				0,
				-0.697081983089447,
				0,
				0.7169914841651917
			],
			"scale":[
				0.17892390489578247,
				0.17892388999462128,
				0.19099025428295135
			],
			"translation":[
				-0.4136750102043152,
				1.6663228273391724,
				-0.7622023820877075
			]
		},
		{
			"mesh":10,
			"name":"Cube",
			"rotation":[
				0,
				-0.697081983089447,
				0,
				0.7169914841651917
			],
			"scale":[
				0.2872993052005768,
				0.2872993052005768,
				0.19421179592609406
			],
			"translation":[
				-0.4127444326877594,
				0.0782080888748169,
				-0.7161262035369873
			]
		},
		{
			"mesh":11,
			"name":"Cylinder.009",
			"rotation":[
				0.4929113984107971,
				-0.49291136860847473,
				-0.5069895386695862,
				0.5069895386695862
			],
			"scale":[
				0.07061726599931717,
				0.07061726599931717,
				0.07061726599931717
			],
			"translation":[
				-0.4279099702835083,
				1.2067458629608154,
				-0.08474895358085632
			]
		}
	],
	"materials":[
		{
			"doubleSided":true,
			"name":"Material.030",
			"pbrMetallicRoughness":{}
		},
		{
			"doubleSided":true,
			"name":"Material.029",
			"pbrMetallicRoughness":{}
		},
		{
			"doubleSided":true,
			"name":"Material.016",
			"pbrMetallicRoughness":{}
		},
		{
			"doubleSided":true,
			"name":"Material.007",
			"pbrMetallicRoughness":{
				"baseColorFactor":[
					0.049370117485523224,
					0.049200303852558136,
					0.05221778154373169,
					1
				],
				"metallicFactor":0,
				"roughnessFactor":0.5
			}
		},
		{
			"doubleSided":true,
			"name":"Material.006",
			"pbrMetallicRoughness":{}
		},
		{
			"doubleSided":true,
			"name":"Material.004",
			"pbrMetallicRoughness":{}
		},
		{
			"doubleSided":true,
			"name":"Material.005",
			"pbrMetallicRoughness":{}
		},
		{
			"doubleSided":true,
			"name":"Material.003",
			"pbrMetallicRoughness":{}
		},
		{
			"doubleSided":true,
			"emissiveFactor":[
				0.019463888026277302,
				1,
				0.022734273520773035
			],
			"extensions":{
				"KHR_materials_emissive_strength":{
					"emissiveStrength":1.4400000905990566
				}
			},
			"name":"Material.010",
			"pbrMetallicRoughness":{
				"baseColorFactor":[
					0,
					0,
					0,
					1
				]
			}
		},
		{
			"doubleSided":true,
			"emissiveFactor":[
				0.019463888026277302,
				1,
				0.022734273520773035
			],
			"extensions":{
				"KHR_materials_emissive_strength":{
					"emissiveStrength":1.4400000905990566
				}
			},
			"name":"Material.008",
			"pbrMetallicRoughness":{
				"baseColorFactor":[
					0,
					0,
					0,
					1
				]
			}
		},
		{
			"doubleSided":true,
			"emissiveFactor":[
				0.019463888026277302,
				1,
				0.022734273520773035
			],
			"extensions":{
				"KHR_materials_emissive_strength":{
					"emissiveStrength":1.4400000905990566
				}
			},
			"name":"Material.009",
			"pbrMetallicRoughness":{
				"baseColorFactor":[
					0,
					0,
					0,
					1
				]
			}
		},
		{
			"doubleSided":true,
			"name":"Material.002",
			"pbrMetallicRoughness":{}
		},
		{
			"doubleSided":true,
			"name":"Material.001",
			"pbrMetallicRoughness":{}
		},
		{
			"doubleSided":true,
			"name":"Material.017",
			"pbrMetallicRoughness":{}
		}
	],
	"meshes":[
		{
			"name":"Cube.012",
			"primitives":[
				{
					"attributes":{
						"POSITION":0,
						"NORMAL":1
					},
					"indices":2,
					"material":0
				}
			]
		},
		{
			"name":"Cylinder.027",
			"primitives":[
				{
					"attributes":{
						"POSITION":3,
						"NORMAL":4
					},
					"indices":5,
					"material":1
				}
			]
		},
		{
			"name":"Cylinder.010",
			"primitives":[
				{
					"attributes":{
						"POSITION":6,
						"NORMAL":7
					},
					"indices":8,
					"material":2
				}
			]
		},
		{
			"name":"Cube.008",
			"primitives":[
				{
					"attributes":{
						"POSITION":9,
						"NORMAL":10
					},
					"indices":11,
					"material":3
				}
			]
		},
		{
			"name":"Cube.006",
			"primitives":[
				{
					"attributes":{
						"POSITION":12,
						"NORMAL":13
					},
					"indices":14,
					"material":4
				}
			]
		},
		{
			"name":"Cylinder.001",
			"primitives":[
				{
					"attributes":{
						"POSITION":15,
						"NORMAL":16
					},
					"indices":17,
					"material":5
				}
			]
		},
		{
			"name":"Cylinder",
			"primitives":[
				{
					"attributes":{
						"POSITION":18,
						"NORMAL":19
					},
					"indices":20,
					"material":6
				}
			]
		},
		{
			"name":"Cube.003",
			"primitives":[
				{
					"attributes":{
						"POSITION":21,
						"NORMAL":22
					},
					"indices":23,
					"material":7
				}
			]
		},
		{
			"name":"Cylinder.005",
			"primitives":[
				{
					"attributes":{
						"POSITION":24,
						"NORMAL":25
					},
					"indices":26,
					"material":8
				},
				{
					"attributes":{
						"POSITION":27,
						"NORMAL":28
					},
					"indices":26,
					"material":9
				},
				{
					"attributes":{
						"POSITION":29,
						"NORMAL":30
					},
					"indices":26,
					"material":10
				}
			]
		},
		{
			"name":"Cube.002",
			"primitives":[
				{
					"attributes":{
						"POSITION":31,
						"NORMAL":32
					},
					"indices":33,
					"material":11
				}
			]
		},
		{
			"name":"Mesh",
			"primitives":[
				{
					"attributes":{
						"POSITION":34,
						"NORMAL":35
					},
					"indices":36,
					"material":12
				}
			]
		},
		{
			"name":"Cylinder.015",
			"primitives":[
				{
					"attributes":{
						"POSITION":37,
						"NORMAL":38
					},
					"indices":39,
					"material":13
				}
			]
		}
	],
	"accessors":[
		{
			"bufferView":0,
			"componentType":5126,
			"count":261,
			"max":[
				2.2208895683288574,
				1.3284516334533691,
				8.218862533569336
			],
			"min":[
				-2.6594133377075195,
				-1.6859560012817383,
				-0.5542620420455933
			],
			"type":"VEC3"
		},
		{
			"bufferView":1,
			"componentType":5126,
			"count":261,
			"type":"VEC3"
		},
		{
			"bufferView":2,
			"componentType":5123,
			"count":660,
			"type":"SCALAR"
		},
		{
			"bufferView":3,
			"componentType":5126,
			"count":96,
			"max":[
				1.4892609119415283,
				2.6287126541137695,
				1
			],
			"min":[
				-1,
				-1,
				-1
			],
			"type":"VEC3"
		},
		{
			"bufferView":4,
			"componentType":5126,
			"count":96,
			"type":"VEC3"
		},
		{
			"bufferView":5,
			"componentType":5123,
			"count":564,
			"type":"SCALAR"
		},
		{
			"bufferView":6,
			"componentType":5126,
			"count":672,
			"max":[
				1.0000001192092896,
				4.186113357543945,
				1.963303565979004
			],
			"min":[
				-4.6781086921691895,
				-1,
				-1
			],
			"type":"VEC3"
		},
		{
			"bufferView":7,
			"componentType":5126,
			"count":672,
			"type":"VEC3"
		},
		{
			"bufferView":8,
			"componentType":5123,
			"count":3996,
			"type":"SCALAR"
		},
		{
			"bufferView":9,
			"componentType":5126,
			"count":251,
			"max":[
				1.1911349296569824,
				1.3578565120697021,
				1
			],
			"min":[
				-1.1721488237380981,
				-1,
				-1.2396866083145142
			],
			"type":"VEC3"
		},
		{
			"bufferView":10,
			"componentType":5126,
			"count":251,
			"type":"VEC3"
		},
		{
			"bufferView":11,
			"componentType":5123,
			"count":636,
			"type":"SCALAR"
		},
		{
			"bufferView":12,
			"componentType":5126,
			"count":264,
			"max":[
				5.006646633148193,
				11.829861640930176,
				1.3388450145721436
			],
			"min":[
				-2.290342330932617,
				-1.7984981536865234,
				-1.3388450145721436
			],
			"type":"VEC3"
		},
		{
			"bufferView":13,
			"componentType":5126,
			"count":264,
			"type":"VEC3"
		},
		{
			"bufferView":14,
			"componentType":5123,
			"count":564,
			"type":"SCALAR"
		},
		{
			"bufferView":15,
			"componentType":5126,
			"count":128,
			"max":[
				1,
				1.2660205364227295,
				1
			],
			"min":[
				-1.0000008344650269,
				-12.61717414855957,
				-1
			],
			"type":"VEC3"
		},
		{
			"bufferView":16,
			"componentType":5126,
			"count":128,
			"type":"VEC3"
		},
		{
			"bufferView":17,
			"componentType":5123,
			"count":756,
			"type":"SCALAR"
		},
		{
			"bufferView":18,
			"componentType":5126,
			"count":160,
			"max":[
				1,
				1.1234116554260254,
				1
			],
			"min":[
				-1.0000011920928955,
				-16.549787521362305,
				-1
			],
			"type":"VEC3"
		},
		{
			"bufferView":19,
			"componentType":5126,
			"count":160,
			"type":"VEC3"
		},
		{
			"bufferView":20,
			"componentType":5123,
			"count":948,
			"type":"SCALAR"
		},
		{
			"bufferView":21,
			"componentType":5126,
			"count":30,
			"max":[
				9.57189655303955,
				1.099663496017456,
				0.8954753875732422
			],
			"min":[
				5.837013244628906,
				0.032982274889945984,
				-0.7224465608596802
			],
			"type":"VEC3"
		},
		{
			"bufferView":22,
			"componentType":5126,
			"count":30,
			"type":"VEC3"
		},
		{
			"bufferView":23,
			"componentType":5123,
			"count":105,
			"type":"SCALAR"
		},
		{
			"bufferView":24,
			"componentType":5126,
			"count":192,
			"max":[
				1,
				1,
				1
			],
			"min":[
				-1,
				-1,
				-1
			],
			"type":"VEC3"
		},
		{
			"bufferView":25,
			"componentType":5126,
			"count":192,
			"type":"VEC3"
		},
		{
			"bufferView":26,
			"componentType":5123,
			"count":372,
			"type":"SCALAR"
		},
		{
			"bufferView":27,
			"componentType":5126,
			"count":192,
			"max":[
				0.999992311000824,
				-151.1212921142578,
				5.863617897033691
			],
			"min":[
				-1.0000076293945312,
				-156.04307556152344,
				3.8636178970336914
			],
			"type":"VEC3"
		},
		{
			"bufferView":28,
			"componentType":5126,
			"count":192,
			"type":"VEC3"
		},
		{
			"bufferView":29,
			"componentType":5126,
			"count":192,
			"max":[
				0.999992311000824,
				-151.1212921142578,
				-4.018796443939209
			],
			"min":[
				-1.0000076293945312,
				-156.04307556152344,
				-6.018796443939209
			],
			"type":"VEC3"
		},
		{
			"bufferView":30,
			"componentType":5126,
			"count":192,
			"type":"VEC3"
		},
		{
			"bufferView":31,
			"componentType":5126,
			"count":1777,
			"max":[
				15.961091995239258,
				1.6698346138000488,
				1.0481412410736084
			],
			"min":[
				-1.130386233329773,
				-1.6668874025344849,
				-1.0498604774475098
			],
			"type":"VEC3"
		},
		{
			"bufferView":32,
			"componentType":5126,
			"count":1777,
			"type":"VEC3"
		},
		{
			"bufferView":33,
			"componentType":5123,
			"count":3735,
			"type":"SCALAR"
		},
		{
			"bufferView":34,
			"componentType":5126,
			"count":11012,
			"max":[
				9.78775405883789,
				4.9435272216796875,
				1.1208956241607666
			],
			"min":[
				-1.4973714351654053,
				-1.045596957206726,
				-1.259690523147583
			],
			"type":"VEC3"
		},
		{
			"bufferView":35,
			"componentType":5126,
			"count":11012,
			"type":"VEC3"
		},
		{
			"bufferView":36,
			"componentType":5123,
			"count":65748,
			"type":"SCALAR"
		},
		{
			"bufferView":37,
			"componentType":5126,
			"count":672,
			"max":[
				1,
				1.9115726947784424,
				1.1050646305084229
			],
			"min":[
				-5.538116931915283,
				-1,
				-1.988229751586914
			],
			"type":"VEC3"
		},
		{
			"bufferView":38,
			"componentType":5126,
			"count":672,
			"type":"VEC3"
		},
		{
			"bufferView":39,
			"componentType":5123,
			"count":3996,
			"type":"SCALAR"
		}
	],
	"bufferViews":[
		{
			"buffer":0,
			"byteLength":3132,
			"byteOffset":0,
			"target":34962
		},
		{
			"buffer":0,
			"byteLength":3132,
			"byteOffset":3132,
			"target":34962
		},
		{
			"buffer":0,
			"byteLength":1320,
			"byteOffset":6264,
			"target":34963
		},
		{
			"buffer":0,
			"byteLength":1152,
			"byteOffset":7584,
			"target":34962
		},
		{
			"buffer":0,
			"byteLength":1152,
			"byteOffset":8736,
			"target":34962
		},
		{
			"buffer":0,
			"byteLength":1128,
			"byteOffset":9888,
			"target":34963
		},
		{
			"buffer":0,
			"byteLength":8064,
			"byteOffset":11016,
			"target":34962
		},
		{
			"buffer":0,
			"byteLength":8064,
			"byteOffset":19080,
			"target":34962
		},
		{
			"buffer":0,
			"byteLength":7992,
			"byteOffset":27144,
			"target":34963
		},
		{
			"buffer":0,
			"byteLength":3012,
			"byteOffset":35136,
			"target":34962
		},
		{
			"buffer":0,
			"byteLength":3012,
			"byteOffset":38148,
			"target":34962
		},
		{
			"buffer":0,
			"byteLength":1272,
			"byteOffset":41160,
			"target":34963
		},
		{
			"buffer":0,
			"byteLength":3168,
			"byteOffset":42432,
			"target":34962
		},
		{
			"buffer":0,
			"byteLength":3168,
			"byteOffset":45600,
			"target":34962
		},
		{
			"buffer":0,
			"byteLength":1128,
			"byteOffset":48768,
			"target":34963
		},
		{
			"buffer":0,
			"byteLength":1536,
			"byteOffset":49896,
			"target":34962
		},
		{
			"buffer":0,
			"byteLength":1536,
			"byteOffset":51432,
			"target":34962
		},
		{
			"buffer":0,
			"byteLength":1512,
			"byteOffset":52968,
			"target":34963
		},
		{
			"buffer":0,
			"byteLength":1920,
			"byteOffset":54480,
			"target":34962
		},
		{
			"buffer":0,
			"byteLength":1920,
			"byteOffset":56400,
			"target":34962
		},
		{
			"buffer":0,
			"byteLength":1896,
			"byteOffset":58320,
			"target":34963
		},
		{
			"buffer":0,
			"byteLength":360,
			"byteOffset":60216,
			"target":34962
		},
		{
			"buffer":0,
			"byteLength":360,
			"byteOffset":60576,
			"target":34962
		},
		{
			"buffer":0,
			"byteLength":210,
			"byteOffset":60936,
			"target":34963
		},
		{
			"buffer":0,
			"byteLength":2304,
			"byteOffset":61148,
			"target":34962
		},
		{
			"buffer":0,
			"byteLength":2304,
			"byteOffset":63452,
			"target":34962
		},
		{
			"buffer":0,
			"byteLength":744,
			"byteOffset":65756,
			"target":34963
		},
		{
			"buffer":0,
			"byteLength":2304,
			"byteOffset":66500,
			"target":34962
		},
		{
			"buffer":0,
			"byteLength":2304,
			"byteOffset":68804,
			"target":34962
		},
		{
			"buffer":0,
			"byteLength":2304,
			"byteOffset":71108,
			"target":34962
		},
		{
			"buffer":0,
			"byteLength":2304,
			"byteOffset":73412,
			"target":34962
		},
		{
			"buffer":0,
			"byteLength":21324,
			"byteOffset":75716,
			"target":34962
		},
		{
			"buffer":0,
			"byteLength":21324,
			"byteOffset":97040,
			"target":34962
		},
		{
			"buffer":0,
			"byteLength":7470,
			"byteOffset":118364,
			"target":34963
		},
		{
			"buffer":0,
			"byteLength":132144,
			"byteOffset":125836,
			"target":34962
		},
		{
			"buffer":0,
			"byteLength":132144,
			"byteOffset":257980,
			"target":34962
		},
		{
			"buffer":0,
			"byteLength":131496,
			"byteOffset":390124,
			"target":34963
		},
		{
			"buffer":0,
			"byteLength":8064,
			"byteOffset":521620,
			"target":34962
		},
		{
			"buffer":0,
			"byteLength":8064,
			"byteOffset":529684,
			"target":34962
		},
		{
			"buffer":0,
			"byteLength":7992,
			"byteOffset":537748,
			"target":34963
		}
	],
	"buffers":[
		{
			"byteLength":545740,
			"uri":"data:application/octet-stream;base64,"
		}
	]
}
